<?xml version="1.0" encoding="UTF-8" standalone="no"?>
<svg
   xmlns:dc="http://purl.org/dc/elements/1.1/"
   xmlns:cc="http://creativecommons.org/ns#"
   xmlns:rdf="http://www.w3.org/1999/02/22-rdf-syntax-ns#"
   xmlns:svg="http://www.w3.org/2000/svg"
   xmlns="http://www.w3.org/2000/svg"
   width="118.99998"
   height="88"
   viewBox="0 0 62.970028 46.56608"
   version="1.1"
   id="svg5650">
  <defs
     id="defs5644" />
  <metadata
     id="metadata5647">
    <rdf:RDF>
      <cc:Work
         rdf:about="">
        <dc:format>image/svg+xml</dc:format>
        <dc:type
           rdf:resource="http://purl.org/dc/dcmitype/StillImage" />
        <dc:title></dc:title>
      </cc:Work>
    </rdf:RDF>
  </metadata>
  <g
     id="layer1"
     transform="matrix(3.9999497,0,0,3.9999497,-428.12824,-1019.5609)">
    <g
       transform="matrix(0.26458333,0,0,0.26458333,255.80861,468.88844)"
       id="g642">
      <path
         style="fill:#ffffff"
         id="path640"
         d="m -504.4,-795.9 c 0,1.9 -0.5,3.8 -1.5,5.4 -1,1.7 -2.5,3.2 -4.6,4.4 1,0.3 1.8,0.8 2.5,1.5 0.7,0.6 1.3,1.3 1.7,2.1 0.4,0.8 0.8,1.6 1,2.5 0.2,0.9 0.3,1.8 0.3,2.7 v 6.4 c 0,0.8 0.2,1.7 0.6,2.8 0.4,1.1 0.9,2.2 1.6,3.3 h -8.1 c -0.3,-0.5 -0.6,-1 -0.8,-1.6 -0.2,-0.5 -0.3,-1.1 -0.4,-1.6 -0.1,-0.5 -0.2,-1 -0.2,-1.5 0,-0.5 0,-0.9 0,-1.2 v -6.7 c 0,-0.7 -0.1,-1.3 -0.3,-2 -0.2,-0.7 -3.6,1.1 -4.1,0.6 -0.5,-0.5 1.9,-3.3 1.1,-3.6 -0.8,-0.3 -1.8,-0.5 -2.9,-0.5 h -11.2 v 18.1 h -7.5 v -44 h 18.7 c 2.3,0 4.3,0.4 6.1,1.1 1.8,0.8 3.3,1.7 4.5,3 1.2,1.2 2.1,2.6 2.7,4.1 0.5,1.5 0.8,3.1 0.8,4.7 z m -25.5,6.8 h 11.2 c 0.9,0 1.8,-0.2 2.6,-0.5 0.8,-0.3 1.5,-0.8 2.1,-1.4 0.6,-0.6 1.1,-1.3 1.5,-2.1 0.4,-0.8 0.5,-1.7 0.5,-2.7 0,-1 -0.2,-1.9 -0.5,-2.7 -0.3,-0.8 -0.8,-1.5 -1.4,-2.1 -0.6,-0.6 -1.3,-1.1 -2.1,-1.4 -0.8,-0.3 -1.7,-0.5 -2.7,-0.5 h -11.2 z" />
    </g>
    <g
       transform="matrix(0.26458333,0,0,0.26458333,255.80861,468.88844)"
       id="g754">
      <g
         id="g744">
        <rect
           style="fill:#f5af5f"
           id="rect742"
           height="27.5"
           width="16.1"
           y="-797.09998"
           x="-562.29999" />
      </g>
      <path
         style="fill:#ffffff"
         id="path746"
         d="m -553.1,-790.8 c -0.1,0.6 -5.4,8.5 -5.4,8.5 h 5.2 l -0.9,6.4 5.1,-8.7 h -5.9 z" />
      <rect
         style="fill:#ffffff"
         id="rect748"
         height="2.2"
         width="7.0999999"
         y="-799.29999"
         x="-557.79999" />
      <g
         id="g752">
        <rect
           style="fill:#f5af5f"
           id="rect750"
           height="2.2"
           width="16.1"
           y="-767.70001"
           x="-562.29999" />
      </g>
    </g>
  </g>
</svg>
